<svg viewBox="0 0 200 250" xmlns="http://www.w3.org/2000/svg">
  <defs>
    <linearGradient id="wineGradient" x1="0%" y1="0%" x2="0%" y2="100%">
      <stop offset="0%" style="stop-color:#8b0000;stop-opacity:1" />
      <stop offset="100%" style="stop-color:#5e0000;stop-opacity:1" />
    </linearGradient>
    
    <clipPath id="glassClip">
      <!-- Forma del calice Borgogna corretta - parte superiore piatta -->
      <path d="M 60 30 L 140 30 
               Q 135 80, 125 110 
               Q 115 135, 100 145 
               Q 85 135, 75 110 
               Q 65 80, 60 30 Z" />
    </clipPath>
  </defs>
  
  <!-- Stelo del calice -->
  <path d="M 95 145 L 95 185 C 95 190, 105 190, 105 185 L 105 145" fill="#e0e0e0" />
  
  <!-- Base del calice -->
  <path d="M 90 185 C 90 195, 110 195, 110 185 L 108 195 C 108 205, 92 205, 92 195 Z" fill="#e0e0e0" />
  <ellipse cx="100" cy="205" rx="35" ry="10" fill="#e0e0e0" />
  
  <!-- Contorno del calice Borgogna corretto -->
  <path d="M 60 30 L 140 30 
           Q 135 80, 125 110 
           Q 115 135, 100 145 
           Q 85 135, 75 110 
           Q 65 80, 60 30 Z" 
        fill="none" stroke="#e0e0e0" stroke-width="2" />
  
  <!-- Riflessi sul vetro -->
  <path d="M 75 50 L 75 100" fill="none" stroke="#ffffff" stroke-width="1" opacity="0.5" />
  <path d="M 70 30 L 85 30" fill="none" stroke="#ffffff" stroke-width="1" opacity="0.3" />
  
  <!-- Vino che si riempie, con clip-path per contenere il liquido nel bicchiere -->
  <rect x="60" y="30" width="80" height="115" fill="url(#wineGradient)" clip-path="url(#glassClip)">
    <animate attributeName="y" from="145" to="30" dur="3s" begin="0s" repeatCount="indefinite" />
    <animate attributeName="height" from="0" to="115" dur="3s" begin="0s" repeatCount="indefinite" />
  </rect>
  
  <!-- Brillantezza sul vino -->
  <ellipse cx="80" cy="90" rx="4" ry="12" fill="#ffffff" opacity="0.3">
    <animate attributeName="cy" from="145" to="60" dur="3s" begin="0s" repeatCount="indefinite" />
  </ellipse>
</svg>